<svg width="250" height="275" viewBox="0 0 250 275" fill="none" xmlns="http://www.w3.org/2000/svg">
<path d="M124.969 26.7393L172.696 53.1276L196.895 39.7872L124.969 0L4.82753 66.468L28.9047 79.8084L124.969 26.7393Z" fill="#E8E7E7"/>
<path d="M220.973 53.1277L124.97 106.197L77.2433 79.8084L53.105 93.1488L124.97 132.877L245.173 66.4681L220.973 53.1277Z" fill="#E8E7E7"/>
<path d="M24.1383 142.415L0 129.075L0 208.532L120.142 275V248.319L24.1383 195.192V142.415Z" fill="#E8E7E7"/>
<path d="M0 102.393L96.0032 155.462V208.238L120.142 221.637V142.122L0 75.7121L0 102.393Z" fill="#E8E7E7"/>
<path d="M201.724 129.074V102.393L129.798 142.122V274.999L153.936 261.659V155.462L201.724 129.074Z" fill="#E8E7E7"/>
<path d="M225.801 89.0525V195.191L178.074 221.637V248.318L250 208.531V75.7121L225.801 89.0525Z" fill="#E8E7E7"/>
</svg>
