<svg width="1154" height="321" viewBox="0 0 1154 321" fill="none" xmlns="http://www.w3.org/2000/svg">
<g clip-path="url(#clip0_315_66)">
<path d="M178.969 49.7393L226.696 76.1276L250.895 62.7872L178.969 23L58.8275 89.468L82.9047 102.808L178.969 49.7393Z" fill="#E8E7E7"/>
<path d="M274.973 76.1277L178.97 129.197L131.243 102.808L107.105 116.149L178.97 155.877L299.173 89.4681L274.973 76.1277Z" fill="#E8E7E7"/>
<path d="M78.1383 165.415L54 152.075V231.532L174.142 298V271.319L78.1383 218.192V165.415Z" fill="#E8E7E7"/>
<path d="M54 125.393L150.003 178.462V231.238L174.142 244.637V165.122L54 98.7121V125.393Z" fill="#E8E7E7"/>
<path d="M255.724 152.074V125.393L183.798 165.122V297.999L207.936 284.659V178.462L255.724 152.074Z" fill="#E8E7E7"/>
<path d="M279.801 112.052V218.191L232.074 244.637V271.318L304 231.531V98.7121L279.801 112.052Z" fill="#E8E7E7"/>
<path d="M403.018 224H361.121V100.364H403.863C416.138 100.364 426.682 102.839 435.496 107.789C444.351 112.699 451.152 119.762 455.901 128.979C460.65 138.195 463.025 149.223 463.025 162.061C463.025 174.94 460.63 186.008 455.841 195.264C451.092 204.521 444.23 211.624 435.255 216.575C426.32 221.525 415.574 224 403.018 224ZM383.518 204.621H401.931C410.544 204.621 417.728 203.052 423.483 199.913C429.238 196.733 433.565 192.004 436.462 185.726C439.36 179.407 440.809 171.519 440.809 162.061C440.809 152.603 439.36 144.755 436.462 138.517C433.565 132.239 429.278 127.55 423.604 124.451C417.969 121.312 410.966 119.742 402.595 119.742H383.518V204.621ZM523.786 225.811C514.731 225.811 506.883 223.819 500.242 219.835C493.602 215.85 488.45 210.276 484.788 203.112C481.166 195.948 479.355 187.577 479.355 177.999C479.355 168.42 481.166 160.029 484.788 152.825C488.45 145.62 493.602 140.026 500.242 136.042C506.883 132.058 514.731 130.065 523.786 130.065C532.842 130.065 540.69 132.058 547.331 136.042C553.971 140.026 559.103 145.62 562.725 152.825C566.387 160.029 568.218 168.42 568.218 177.999C568.218 187.577 566.387 195.948 562.725 203.112C559.103 210.276 553.971 215.85 547.331 219.835C540.69 223.819 532.842 225.811 523.786 225.811ZM523.907 208.304C528.817 208.304 532.922 206.956 536.223 204.259C539.523 201.522 541.978 197.86 543.588 193.272C545.238 188.684 546.063 183.573 546.063 177.938C546.063 172.263 545.238 167.132 543.588 162.544C541.978 157.916 539.523 154.233 536.223 151.496C532.922 148.76 528.817 147.391 523.907 147.391C518.876 147.391 514.691 148.76 511.35 151.496C508.05 154.233 505.575 157.916 503.925 162.544C502.315 167.132 501.51 172.263 501.51 177.938C501.51 183.573 502.315 188.684 503.925 193.272C505.575 197.86 508.05 201.522 511.35 204.259C514.691 206.956 518.876 208.304 523.907 208.304ZM627.214 225.811C617.958 225.811 610.009 223.779 603.368 219.714C596.768 215.649 591.677 210.035 588.095 202.871C584.553 195.667 582.782 187.376 582.782 177.999C582.782 168.581 584.593 160.27 588.216 153.066C591.838 145.822 596.949 140.187 603.549 136.163C610.19 132.098 618.038 130.065 627.093 130.065C634.62 130.065 641.28 131.454 647.076 134.231C652.911 136.968 657.56 140.851 661.021 145.882C664.482 150.873 666.454 156.708 666.937 163.389H646.049C645.204 158.922 643.192 155.199 640.013 152.221C636.873 149.202 632.668 147.693 627.395 147.693C622.928 147.693 619.004 148.901 615.623 151.315C612.243 153.69 609.607 157.111 607.715 161.578C605.864 166.045 604.938 171.398 604.938 177.636C604.938 183.955 605.864 189.388 607.715 193.936C609.566 198.444 612.162 201.925 615.503 204.38C618.883 206.795 622.848 208.002 627.395 208.002C630.615 208.002 633.493 207.398 636.028 206.191C638.604 204.943 640.757 203.152 642.488 200.818C644.218 198.484 645.406 195.647 646.049 192.306H666.937C666.414 198.866 664.482 204.682 661.142 209.753C657.801 214.784 653.254 218.728 647.498 221.585C641.743 224.402 634.982 225.811 627.214 225.811ZM704.804 194.902L704.744 168.521H708.245L741.569 131.273H767.105L726.114 176.912H721.587L704.804 194.902ZM684.882 224V100.364H706.736V224H684.882ZM743.078 224L712.893 181.802L727.623 166.408L769.218 224H743.078ZM781.669 224V131.273H802.859V146.727H803.825C805.515 141.375 808.413 137.249 812.518 134.352C816.663 131.414 821.392 129.945 826.705 129.945C827.912 129.945 829.26 130.005 830.749 130.126C832.279 130.206 833.546 130.347 834.553 130.548V150.651C833.627 150.329 832.158 150.048 830.146 149.806C828.174 149.524 826.262 149.384 824.411 149.384C820.426 149.384 816.844 150.249 813.665 151.979C810.526 153.67 808.051 156.024 806.239 159.043C804.428 162.061 803.523 165.542 803.523 169.487V224H781.669ZM886.304 225.811C877.007 225.811 868.978 223.879 862.217 220.016C855.496 216.112 850.324 210.598 846.702 203.474C843.08 196.311 841.269 187.879 841.269 178.18C841.269 168.641 843.08 160.27 846.702 153.066C850.364 145.822 855.476 140.187 862.036 136.163C868.596 132.098 876.303 130.065 885.157 130.065C890.872 130.065 896.265 130.991 901.336 132.842C906.447 134.653 910.955 137.471 914.859 141.294C918.803 145.117 921.902 149.987 924.156 155.903C926.41 161.779 927.536 168.782 927.536 176.912V183.613H851.532V168.883H906.588C906.548 164.697 905.643 160.974 903.872 157.714C902.101 154.414 899.626 151.818 896.446 149.927C893.307 148.035 889.645 147.089 885.459 147.089C880.992 147.089 877.068 148.176 873.687 150.349C870.306 152.482 867.67 155.3 865.779 158.801C863.927 162.262 862.982 166.066 862.941 170.211V183.07C862.941 188.463 863.927 193.091 865.899 196.955C867.871 200.778 870.628 203.716 874.17 205.768C877.712 207.781 881.857 208.787 886.606 208.787C889.786 208.787 892.663 208.344 895.239 207.459C897.815 206.533 900.048 205.185 901.94 203.414C903.831 201.643 905.26 199.45 906.226 196.834L926.631 199.128C925.343 204.521 922.888 209.23 919.266 213.254C915.684 217.239 911.096 220.338 905.502 222.551C899.907 224.724 893.508 225.811 886.304 225.811ZM967.878 100.364V224H946.025V100.364H967.878ZM990.351 224V131.273H1012.2V224H990.351ZM1001.34 118.112C997.877 118.112 994.899 116.965 992.403 114.671C989.908 112.337 988.66 109.54 988.66 106.28C988.66 102.98 989.908 100.183 992.403 97.8885C994.899 95.5542 997.877 94.3871 1001.34 94.3871C1004.84 94.3871 1007.82 95.5542 1010.27 97.8885C1012.77 100.183 1014.02 102.98 1014.02 106.28C1014.02 109.54 1012.77 112.337 1010.27 114.671C1007.82 116.965 1004.84 118.112 1001.34 118.112ZM1052.55 131.273L1071.26 165.502L1090.28 131.273H1113.4L1085.45 177.636L1113.88 224H1090.88L1071.26 190.616L1051.82 224H1028.64L1056.89 177.636L1029.36 131.273H1052.55Z" fill="#E8E7E7"/>
</g>
<defs>
<clipPath id="clip0_315_66">
<rect width="1154" height="321" fill="white"/>
</clipPath>
</defs>
</svg>
